<svg width="672" height="932" viewBox="0 0 672 932" fill="none" xmlns="http://www.w3.org/2000/svg">
<path fill-rule="evenodd" clip-rule="evenodd" d="M425.125 313.504C441.425 316.904 459.925 315.604 474.025 323.604C489.225 332.404 509.725 347.504 519.225 361.304C537.425 387.604 540.225 417.504 555.225 445.304C599.725 528.104 604.425 591.704 570.125 678.504C549.025 731.804 530.125 771.804 482.125 808.904C462.125 824.404 442.125 847.204 415.325 853.804C395.125 858.804 323.325 853.204 301.325 849.504C243.125 839.504 201.825 780.004 205.225 729.304C207.025 701.804 228.825 677.004 213.425 649.604C187.925 604.304 116.025 625.604 92.8254 578.604C82.8254 558.304 88.9254 535.904 92.8254 514.904C108.225 432.604 185.725 362.704 270.425 329.504C280.925 325.404 292.225 320.704 303.925 316.404C342.825 301.804 385.525 301.004 425.125 313.504Z" fill="#0D6EFD"/>
<path d="M160.725 415.004C196.825 454.504 240.125 500.204 263.525 596.504" stroke="#1C2628" stroke-width="2.13" stroke-linecap="round" stroke-linejoin="round"/>
<path fill-rule="evenodd" clip-rule="evenodd" d="M143.625 368.204C140.425 370.404 139.825 378.304 140.925 386.004C136.525 382.304 131.725 379.404 128.225 379.204C119.025 378.604 121.625 387.304 127.725 395.304C123.325 394.704 119.225 394.904 116.625 396.104C107.225 400.404 116.325 407.904 127.125 411.904C121.725 414.004 117.025 416.904 115.125 419.904C109.625 428.704 121.225 429.904 132.525 427.304C129.225 432.004 126.725 437.004 126.825 440.604C127.025 450.904 137.425 445.604 145.425 437.304C145.225 443.004 145.925 448.604 147.925 451.504C153.725 460.004 159.525 449.904 161.725 438.604C164.625 443.504 168.325 447.804 171.625 449.204C181.125 453.204 180.525 441.504 176.125 430.804C181.325 433.304 186.625 434.904 190.125 434.304C200.325 432.404 193.325 423.004 183.825 416.404C189.525 415.704 194.925 414.104 197.525 411.604C205.025 404.504 194.025 400.404 182.525 400.104C186.925 396.404 190.525 392.104 191.325 388.604C193.725 378.504 182.225 381.104 172.425 387.204C174.025 381.704 174.725 376.104 173.525 372.804C170.025 363.104 161.825 371.504 157.025 381.904C155.425 376.404 152.925 371.404 150.025 369.204C147.225 367.304 145.125 367.104 143.625 368.204ZM151.825 404.404C153.525 404.604 154.825 404.204 155.825 403.304C157.125 404.404 158.425 404.804 159.725 404.604C160.225 406.204 161.125 407.204 162.225 407.804C161.725 409.404 161.925 410.804 162.625 411.904C161.325 413.004 160.725 414.304 160.725 415.604C159.025 415.804 157.825 416.504 157.025 417.604C155.525 416.904 154.125 416.804 152.925 417.304C152.025 415.904 150.925 415.104 149.625 414.804C149.725 413.104 149.225 411.804 148.225 410.904C149.125 409.704 149.325 408.504 149.225 407.304C150.725 406.504 151.525 405.604 151.825 404.404Z" fill="#F45B49" stroke="#1C2628" stroke-width="2.13" stroke-linecap="round" stroke-linejoin="round"/>
<path fill-rule="evenodd" clip-rule="evenodd" d="M143.025 417.404C139.825 410.304 142.925 401.904 150.025 398.704C157.125 395.504 165.525 398.604 168.725 405.704C171.925 412.804 168.825 421.204 161.725 424.404C154.625 427.604 146.225 424.504 143.025 417.404Z" fill="#1C2628" stroke="#1C2628" stroke-width="2.13" stroke-linecap="round" stroke-linejoin="round"/>
<path fill-rule="evenodd" clip-rule="evenodd" d="M238.825 515.104C234.725 480.704 255.125 446.604 277.325 444.204C275.825 448.904 267.125 462.104 265.125 464.804C276.725 458.704 279.225 460.504 279.225 460.504C279.225 460.504 269.525 477.704 260.925 483.304C271.125 484.204 272.025 485.704 272.025 485.704C272.025 485.704 250.825 506.004 238.825 515.104Z" fill="#FAF6EB" stroke="#1C2628" stroke-width="2.13" stroke-linecap="round" stroke-linejoin="round"/>
<path fill-rule="evenodd" clip-rule="evenodd" d="M209.425 499.304C186.125 473.704 147.025 466.904 130.625 482.204C135.125 484.204 150.825 486.104 154.225 486.404C142.025 491.204 141.725 494.304 141.725 494.304C141.725 494.304 161.125 498.204 171.025 495.304C165.025 503.604 165.625 505.204 165.625 505.204C165.625 505.204 194.725 502.504 209.425 499.304Z" fill="#FAF6EB" stroke="#1C2628" stroke-width="2.13" stroke-linecap="round" stroke-linejoin="round"/>
<path d="M244.225 509.504C243.625 501.104 245.925 480.704 255.325 467.604Z" fill="#FAF6EB"/>
<path d="M244.225 509.504C243.625 501.104 245.925 480.704 255.325 467.604" stroke="#1C2628" stroke-width="2.13" stroke-linecap="round" stroke-linejoin="round"/>
<path d="M168.325 482.504C167.825 482.404 175.425 483.704 184.125 488.104C192.825 492.504 203.125 500.204 203.125 500.204" fill="#FAF6EB"/>
<path d="M168.325 482.504C167.825 482.404 175.425 483.704 184.125 488.104C192.825 492.504 203.125 500.204 203.125 500.204" stroke="#1C2628" stroke-width="2.13" stroke-linecap="round" stroke-linejoin="round"/>
<path fill-rule="evenodd" clip-rule="evenodd" d="M230.525 821.004C194.125 741.904 278.525 673.704 295.825 546.004C364.925 531.204 457.025 536.204 457.025 536.204C457.025 536.204 518.825 696.304 535.025 740.604C567.725 830.004 441.325 862.304 441.325 862.304C441.325 862.304 266.925 900.104 230.525 821.004Z" fill="#F45B49" stroke="#1C2628" stroke-width="2.13" stroke-linecap="round" stroke-linejoin="round"/>
<path fill-rule="evenodd" clip-rule="evenodd" d="M340.225 368.604L324.525 470.104L262.925 475.704C262.925 475.704 262.425 473.104 261.925 468.604C261.025 459.804 260.625 443.604 265.025 424.104C271.725 394.404 289.625 356.904 289.625 356.904L305.125 360.504L340.225 368.604Z" fill="#F3A140" stroke="#1C2628" stroke-width="2.13" stroke-linecap="round" stroke-linejoin="round"/>
<path fill-rule="evenodd" clip-rule="evenodd" d="M305.125 360.404C303.925 368.804 300.925 373.904 298.125 377.004C292.925 383.104 287.425 383.904 285.725 390.304C284.925 393.304 285.925 394.004 286.325 403.904C286.625 410.304 286.725 413.504 286.325 415.504C284.125 426.204 273.225 427.104 272.125 434.804C270.825 443.804 284.925 448.804 284.225 455.804C283.825 459.604 279.125 464.204 261.925 468.504C261.025 459.704 260.625 443.504 265.025 424.004C271.725 394.304 289.625 356.804 289.625 356.804L305.125 360.404Z" fill="#1C2628" stroke="#1C2628" stroke-width="2.13" stroke-linecap="round" stroke-linejoin="round"/>
<path fill-rule="evenodd" clip-rule="evenodd" d="M397.625 278.704C387.725 274.304 390.325 256.404 403.725 246.504C417.125 236.604 438.725 245.604 444.225 245.304C475.325 243.804 486.025 272.704 475.825 304.504C472.825 313.704 447.925 337.004 437.725 330.904C427.425 324.704 447.525 295.104 438.725 288.304" fill="#1C2628"/>
<path d="M397.625 278.704C387.725 274.304 390.325 256.404 403.725 246.504C417.125 236.604 438.725 245.604 444.225 245.304C475.325 243.804 486.025 272.704 475.825 304.504C472.825 313.704 447.925 337.004 437.725 330.904C427.425 324.704 447.525 295.104 438.725 288.304" stroke="#1C2628" stroke-width="2.13" stroke-linecap="round" stroke-linejoin="round"/>
<path fill-rule="evenodd" clip-rule="evenodd" d="M448.325 315.504L452.125 347.504L463.325 361.804C463.325 361.804 452.625 376.504 433.825 374.304C415.025 372.204 409.325 360.404 409.325 360.404L407.925 318.804L448.325 315.504Z" fill="#FAF6EB" stroke="#1C2628" stroke-width="2.13" stroke-linecap="round" stroke-linejoin="round"/>
<path fill-rule="evenodd" clip-rule="evenodd" d="M462.825 304.604C465.625 283.804 452.225 264.804 432.925 262.304C423.325 261.004 413.725 254.104 406.525 260.004C399.225 266.004 394.325 284.904 392.925 295.304C390.125 316.104 402.925 333.504 422.225 336.104C432.725 337.504 443.625 339.804 451.125 332.804C457.425 326.904 461.625 314.204 462.825 304.604Z" fill="#FAF6EB" stroke="#1C2628" stroke-width="2.13" stroke-linecap="round" stroke-linejoin="round"/>
<path fill-rule="evenodd" clip-rule="evenodd" d="M402.425 289.604C397.925 295.104 385.725 305.404 387.725 309.004C390.425 313.704 400.725 308.404 401.725 307.304" fill="#FAF6EB"/>
<path d="M402.425 289.604C397.925 295.104 385.725 305.404 387.725 309.004C390.425 313.704 400.725 308.404 401.725 307.304" stroke="#1C2628" stroke-width="2.13" stroke-linecap="round" stroke-linejoin="round"/>
<path fill-rule="evenodd" clip-rule="evenodd" d="M431.825 287.504C431.425 284.604 427.625 282.704 423.325 283.304C419.025 283.904 415.925 286.804 416.325 289.704C416.725 292.604 420.525 294.504 424.825 293.904C429.125 293.304 432.225 290.404 431.825 287.504Z" fill="#FAFCFF" stroke="#1C2628" stroke-width="2.13" stroke-linecap="round" stroke-linejoin="round"/>
<path fill-rule="evenodd" clip-rule="evenodd" d="M402.825 288.004C402.525 285.304 399.425 283.504 396.125 284.004C392.725 284.504 390.325 287.204 390.725 290.004C391.025 292.704 394.125 294.504 397.425 294.004C400.725 293.404 403.125 290.804 402.825 288.004Z" fill="#FAFCFF" stroke="#1C2628" stroke-width="2.13" stroke-linecap="round" stroke-linejoin="round"/>
<path fill-rule="evenodd" clip-rule="evenodd" d="M447.225 347.104L448.225 322.304C448.225 322.304 428.525 316.604 423.725 323.504C418.925 330.404 427.625 349.604 427.625 349.604L442.125 349.804" fill="#FAF6EB"/>
<path fill-rule="evenodd" clip-rule="evenodd" d="M400.825 257.504C397.825 259.704 399.125 251.804 397.925 255.504C393.925 267.304 403.325 272.004 412.425 271.904C421.125 271.904 429.825 269.504 429.825 269.504C429.825 269.504 444.425 294.504 457.925 289.604C466.825 286.404 470.725 275.104 465.025 268.304C460.325 262.704 453.925 259.504 447.025 257.504C440.025 255.504 432.125 256.304 425.325 253.904" fill="#1C2628"/>
<path d="M400.825 257.504C397.825 259.704 399.125 251.804 397.925 255.504C393.925 267.304 403.325 272.004 412.425 271.904C421.125 271.904 429.825 269.504 429.825 269.504C429.825 269.504 444.425 294.504 457.925 289.604C466.825 286.404 470.725 275.104 465.025 268.304C460.325 262.704 453.925 259.504 447.025 257.504C440.025 255.504 432.125 256.304 425.325 253.904" stroke="#1C2628" stroke-width="2.13" stroke-linecap="round" stroke-linejoin="round"/>
<path fill-rule="evenodd" clip-rule="evenodd" d="M394.825 261.504C383.125 234.104 404.325 225.104 414.725 236.304C415.125 219.904 444.525 212.104 449.925 239.004C452.425 234.604 472.025 247.904 449.925 259.304" fill="#1C2628"/>
<path d="M394.825 261.504C383.125 234.104 404.325 225.104 414.725 236.304C415.125 219.904 444.525 212.104 449.925 239.004C452.425 234.604 472.025 247.904 449.925 259.304" stroke="#1C2628" stroke-width="2.13" stroke-linecap="round" stroke-linejoin="round"/>
<path fill-rule="evenodd" clip-rule="evenodd" d="M455.425 290.204C454.325 290.404 459.225 285.504 465.025 292.304C469.125 297.104 464.825 310.704 455.425 306.004" fill="#FAF6EB"/>
<path d="M455.425 290.204C454.325 290.404 459.225 285.504 465.025 292.304C469.125 297.104 464.825 310.704 455.425 306.004" stroke="#1C2628" stroke-width="2.13" stroke-linecap="round" stroke-linejoin="round"/>
<path d="M460.325 296.504L460.025 297.404L459.425 298.704L458.225 299.904" stroke="#1C2628" stroke-width="2.13" stroke-linecap="round" stroke-linejoin="round"/>
<path fill-rule="evenodd" clip-rule="evenodd" d="M417.525 289.404C417.425 287.404 418.925 285.704 420.925 285.604C422.925 285.504 424.625 287.004 424.625 289.004C424.725 291.004 423.225 292.704 421.225 292.804C419.325 292.904 417.625 291.404 417.525 289.404Z" fill="#1C2628" stroke="#1C2628" stroke-width="2.13" stroke-linecap="round" stroke-linejoin="round"/>
<path fill-rule="evenodd" clip-rule="evenodd" d="M391.625 289.804C391.525 287.904 392.725 286.404 394.225 286.304C395.725 286.204 397.125 287.704 397.225 289.504C397.325 291.404 396.125 292.904 394.525 293.004C393.025 293.104 391.725 291.604 391.625 289.804Z" fill="#1C2628" stroke="#1C2628" stroke-width="2.13" stroke-linecap="round" stroke-linejoin="round"/>
<path d="M401.525 269.704C397.725 268.604 396.125 263.804 394.725 260.604" stroke="#FAF6EB" stroke-width="2.13" stroke-linecap="round" stroke-linejoin="round"/>
<path fill-rule="evenodd" clip-rule="evenodd" d="M432.525 338.104L408.325 331.904L409.325 349.504C409.325 349.504 416.625 347.604 422.825 344.104C428.925 340.604 432.525 338.104 432.525 338.104Z" fill="#1C2628" stroke="#1C2628" stroke-width="2.13" stroke-linecap="round" stroke-linejoin="round"/>
<path fill-rule="evenodd" clip-rule="evenodd" d="M464.125 354.304C464.125 354.304 518.725 370.804 527.325 406.304C535.925 441.904 498.525 496.504 498.525 496.504L434.425 584.204L296.825 558.904C296.825 558.904 312.125 412.804 327.025 383.204C331.525 374.204 335.425 357.704 349.025 350.804C362.125 344.204 384.925 347.004 384.925 347.004L410.625 340.204L418.425 364.904L452.325 345.504L464.125 354.304Z" fill="#F3A140" stroke="#1C2628" stroke-width="2.13" stroke-linecap="round" stroke-linejoin="round"/>
<path d="M416.425 367.404C403.825 413.904 388.825 459.904 377.925 506.904C373.325 526.804 370.725 547.604 365.425 567.204" stroke="#1C2628" stroke-width="2.13" stroke-linecap="round" stroke-linejoin="round"/>
<path d="M455.825 354.304C445.625 392.004 461.425 388.904 427.225 374.204" stroke="#1C2628" stroke-width="2.13" stroke-linecap="round" stroke-linejoin="round"/>
<path d="M394.025 349.004C387.125 374.004 374.225 380.904 408.025 368.104" stroke="#1C2628" stroke-width="2.13" stroke-linecap="round" stroke-linejoin="round"/>
<path d="M425.525 307.404C425.225 317.904 416.225 316.904 416.225 313.904" stroke="#1C2628" stroke-width="2.13" stroke-linecap="round" stroke-linejoin="round"/>
<path d="M393.625 414.004C393.625 412.104 391.925 410.504 389.925 410.504C387.925 410.504 386.225 412.104 386.225 414.004C386.225 415.904 387.925 417.504 389.925 417.504C391.925 417.504 393.625 415.904 393.625 414.004Z" stroke="#1C2628" stroke-width="2.13" stroke-linecap="round" stroke-linejoin="round"/>
<path d="M375.825 472.304C375.825 470.604 374.125 469.304 372.025 469.304C369.925 469.304 368.225 470.704 368.225 472.304C368.225 474.004 369.925 475.304 372.025 475.304C374.125 475.304 375.825 474.004 375.825 472.304Z" stroke="#1C2628" stroke-width="2.13" stroke-linecap="round" stroke-linejoin="round"/>
<path d="M362.025 535.504C362.025 533.404 360.225 531.804 357.925 531.804C355.625 531.804 353.825 533.504 353.825 535.504C353.825 537.604 355.625 539.204 357.925 539.204C360.125 539.204 362.025 537.504 362.025 535.504Z" stroke="#1C2628" stroke-width="2.13" stroke-linecap="round" stroke-linejoin="round"/>
<path d="M447.025 646.004C470.525 732.104 518.625 752.604 439.125 796.604C425.725 804.004 389.025 828.004 375.625 835.404" stroke="#FAF6EB" stroke-width="2.13" stroke-linecap="round" stroke-linejoin="round"/>
<path d="M399.725 687.504C448.325 772.804 426.325 783.204 323.425 836.104" stroke="#FAF6EB" stroke-width="2.13" stroke-linecap="round" stroke-linejoin="round"/>
<path fill-rule="evenodd" clip-rule="evenodd" d="M457.525 577.304C457.525 577.304 463.325 513.404 419.725 486.104C376.125 458.804 350.025 407.604 350.025 407.604C350.025 407.604 291.325 468.504 271.725 497.004C252.125 525.504 244.925 598.504 244.925 598.504C244.925 598.504 275.925 616.504 283.525 636.404C291.025 656.004 282.925 681.004 271.625 691.604L244.125 702.904C244.125 702.904 234.725 786.804 266.125 836.604C297.525 886.404 345.425 906.904 437.125 872.904C518.525 842.704 480.425 677.804 480.425 677.804C480.425 677.804 447.725 671.504 438.125 645.304C418.725 593.104 457.525 577.304 457.525 577.304Z" fill="#1C2628" stroke="#1C2628" stroke-width="2.13" stroke-linecap="round" stroke-linejoin="round"/>
<path fill-rule="evenodd" clip-rule="evenodd" d="M476.125 575.204C476.125 575.204 481.925 511.304 438.325 484.004C394.725 456.704 354.625 413.804 354.625 413.804C354.625 413.804 309.925 466.304 290.325 494.904C270.725 523.404 263.525 596.404 263.525 596.404C263.525 596.404 294.525 614.404 302.125 634.304C309.625 653.904 301.525 678.904 290.225 689.504L262.725 700.704C262.725 700.704 265.325 783.904 296.725 833.704C328.125 883.504 364.025 904.704 455.725 870.704C537.125 840.504 499.025 675.604 499.025 675.604C499.025 675.604 466.325 669.304 456.725 643.104C437.425 590.904 476.125 575.204 476.125 575.204Z" fill="#1C2628" stroke="#1C2628" stroke-width="2.13" stroke-linecap="round" stroke-linejoin="round"/>
<path d="M417.725 786.904L413.625 753.204L371.825 757.804L374.725 796.104L417.725 786.904Z" stroke="#FAF6EB" stroke-width="2.13" stroke-linecap="round" stroke-linejoin="round"/>
<path d="M350.725 694.904C347.325 684.804 330.925 686.504 328.425 696.604C324.525 712.004 356.025 784.004 320.125 782.804" stroke="#FAF6EB" stroke-width="2.13" stroke-linecap="round" stroke-linejoin="round"/>
<path d="M438.125 680.304C448.525 670.104 452.125 697.004 452.425 699.204C455.025 716.204 448.125 733.304 453.325 750.604C454.325 753.804 457.325 764.304 462.625 763.804" stroke="#FAF6EB" stroke-width="2.13" stroke-linecap="round" stroke-linejoin="round"/>
<path d="M353.725 416.404C353.925 414.204 343.525 429.304 341.025 431.804C329.425 443.404 321.625 457.204 311.325 469.704C282.225 505.004 265.025 552.804 261.425 597.904" stroke="#FAF6EB" stroke-width="2.13" stroke-linecap="round" stroke-linejoin="round"/>
<path d="M261.525 597.904C276.725 608.104 301.825 626.704 303.325 650.404C304.425 668.404 285.425 702.404 262.925 694.804" stroke="#FAF6EB" stroke-width="2.13" stroke-linecap="round" stroke-linejoin="round"/>
<path d="M262.925 694.804C262.925 694.804 265.125 748.904 267.425 763.704C275.725 817.804 295.125 849.104 337.725 875.404C361.525 890.104 385.725 886.104 385.725 886.104" stroke="#FAF6EB" stroke-width="2.13" stroke-linecap="round" stroke-linejoin="round"/>
<path fill-rule="evenodd" clip-rule="evenodd" d="M410.125 746.304L355.325 203.904C355.325 203.904 354.325 171.904 341.025 164.904C327.725 157.904 333.425 154.304 333.425 154.304C333.425 154.304 365.925 129.004 343.925 116.004C321.925 103.104 308.725 110.904 304.325 123.104C299.925 135.304 302.825 152.004 302.825 152.004L284.125 157.804L288.225 172.404L306.525 166.604L309.725 179.904L287.725 190.004L295.225 209.904L317.625 200.204L374.625 754.104L410.125 746.304Z" fill="#1C2628" stroke="#1C2628" stroke-width="2.13" stroke-linecap="round" stroke-linejoin="round"/>
<path d="M341.325 430.604L344.225 457.904" stroke="#FAF6EB" stroke-width="2.13" stroke-linecap="round" stroke-linejoin="round"/>
<path d="M401.425 752.704L352.925 278.704L347.725 227.904" stroke="#FAF6EB" stroke-width="2.13" stroke-linecap="round" stroke-linejoin="round"/>
<path d="M393.225 754.904L342.325 279.004L337.225 229.104" stroke="#FAF6EB" stroke-width="2.13" stroke-linecap="round" stroke-linejoin="round"/>
<path d="M383.225 756.904L331.925 278.704L326.925 229.704" stroke="#FAF6EB" stroke-width="2.13" stroke-linecap="round" stroke-linejoin="round"/>
<path d="M325.125 143.504C303.725 158.304 333.725 189.304 338.125 204.504C340.125 211.304 338.825 217.404 337.125 224.004" stroke="#FAF6EB" stroke-width="2.13" stroke-linecap="round" stroke-linejoin="round"/>
<path fill-rule="evenodd" clip-rule="evenodd" d="M441.925 628.804L415.725 647.004L414.525 666.904L400.925 667.104C400.925 667.104 402.825 675.404 398.525 675.104C394.325 674.804 388.725 667.704 388.725 667.704C388.725 667.704 386.625 672.504 381.025 672.104C375.425 671.704 372.725 661.604 372.725 661.604L374.725 640.704C374.725 640.704 368.625 650.304 366.225 645.604C363.825 640.904 371.925 623.204 371.925 623.204L413.525 590.804L441.925 628.804Z" fill="#FAF6EB" stroke="#1C2628" stroke-width="2.13" stroke-linecap="round" stroke-linejoin="round"/>
<path fill-rule="evenodd" clip-rule="evenodd" d="M526.925 549.004C512.225 587.004 438.325 635.004 438.325 635.004L414.025 611.904L399.525 598.104C399.525 598.104 447.325 534.004 450.225 522.904C453.125 511.704 451.325 452.704 451.325 452.704L489.225 415.104L527.325 406.504C527.425 406.404 541.625 510.904 526.925 549.004Z" fill="#F3A140" stroke="#1C2628" stroke-width="2.13" stroke-linecap="round" stroke-linejoin="round"/>
<path d="M402.525 654.104C401.425 657.804 401.425 661.804 401.325 665.704" stroke="#1C2628" stroke-width="2.13" stroke-linecap="round" stroke-linejoin="round"/>
<path d="M392.925 652.704C390.425 656.604 389.025 664.004 389.825 668.404" stroke="#1C2628" stroke-width="2.13" stroke-linecap="round" stroke-linejoin="round"/>
<path d="M382.225 649.104C380.025 655.004 378.725 664.404 380.725 670.604" stroke="#1C2628" stroke-width="2.13" stroke-linecap="round" stroke-linejoin="round"/>
<path d="M382.025 631.704C379.425 635.204 376.725 638.504 374.025 641.904" stroke="#1C2628" stroke-width="2.13" stroke-linecap="round" stroke-linejoin="round"/>
<path fill-rule="evenodd" clip-rule="evenodd" d="M290.625 358.404C297.325 344.604 323.525 306.904 331.825 308.904C340.225 310.904 369.725 326.804 365.225 333.604C362.725 337.404 337.125 320.304 337.125 321.004C337.125 323.004 368.925 336.004 364.025 345.804C362.225 349.404 334.325 331.204 331.625 330.404C328.925 329.604 356.525 351.004 352.725 353.304C349.025 355.504 331.425 344.904 331.425 344.904C331.425 344.904 329.325 368.804 327.225 370.904C325.625 372.604 289.425 360.804 290.625 358.404Z" fill="#FAF6EB" stroke="#1C2628" stroke-width="2.13" stroke-linecap="round" stroke-linejoin="round"/>
<path d="M255.225 711.104C254.425 720.304 243.125 758.004 241.125 767.604C234.825 797.804 258.025 834.104 281.325 836.704" stroke="#1C2628" stroke-width="2.13" stroke-linecap="round" stroke-linejoin="round"/>
<path fill-rule="evenodd" clip-rule="evenodd" d="M133.125 573.704C106.525 594.204 105.525 537.904 120.425 524.904C134.625 512.504 148.825 529.704 149.525 543.704C150.225 557.104 142.825 566.204 133.125 573.704Z" fill="#FAF6EB"/>
<path fill-rule="evenodd" clip-rule="evenodd" d="M168.625 693.704C180.525 689.704 163.025 651.004 177.825 652.304C195.325 653.804 198.825 700.904 185.425 710.004C177.325 715.504 155.225 698.204 168.625 693.704Z" fill="#F3A13B"/>
<path fill-rule="evenodd" clip-rule="evenodd" d="M332.925 389.504C332.925 409.504 332.225 423.504 325.225 430.604C318.225 437.604 307.725 435.204 307.725 415.304C307.725 395.504 313.325 385.904 320.325 378.804C327.225 371.604 332.925 369.504 332.925 389.504Z" fill="#F3A13B"/>
<path fill-rule="evenodd" clip-rule="evenodd" d="M522.025 433.904C518.225 438.804 516.225 444.704 515.625 450.804C514.725 462.004 514.525 475.704 515.925 491.904C517.525 510.004 486.925 504.804 478.025 524.504C471.025 539.904 482.225 548.704 474.425 561.804C466.425 575.404 452.325 569.504 434.425 584.204C427.125 590.204 418.325 600.304 414.125 611.804L438.425 634.904C438.425 634.904 512.325 586.904 527.025 548.904C537.625 521.504 533.125 459.604 529.825 427.104C526.725 428.704 524.125 431.104 522.025 433.904Z" fill="#1C2628" stroke="#1C2628" stroke-width="2.13" stroke-linecap="round" stroke-linejoin="round"/>
<path fill-rule="evenodd" clip-rule="evenodd" d="M476.225 464.404C460.225 464.404 450.525 454.304 449.925 453.204C442.925 441.504 442.425 419.104 451.125 409.004C457.525 401.604 468.625 401.104 490.825 400.104C499.725 399.704 515.825 398.904 519.025 400.004C539.325 407.004 509.825 428.404 509.225 430.604C506.025 442.404 495.225 464.504 476.225 464.404Z" fill="#F3A13B"/>
<path fill-rule="evenodd" clip-rule="evenodd" d="M469.625 549.204C470.625 554.704 454.425 564.004 450.925 561.004C449.325 559.604 450.625 555.804 451.125 554.104C451.525 553.004 453.825 545.704 460.325 544.904C464.225 544.504 469.125 546.404 469.625 549.204Z" fill="#1C2628" stroke="#1C2628" stroke-width="2.13" stroke-linecap="round" stroke-linejoin="round"/>
<path d="M144.425 178.104C136.725 174.104 127.825 173.304 120.325 175.004C115.925 176.004 112.025 177.704 108.625 179.804C108.425 177.804 108.125 175.804 107.925 173.804C107.425 170.004 107.125 166.104 106.725 162.104C110.425 158.904 113.925 155.404 117.125 151.604C125.025 142.704 130.925 131.704 132.725 119.804C134.425 108.004 135.825 96.0042 132.425 85.1042C131.725 82.3042 130.625 80.4042 129.025 76.7042C128.425 75.4042 127.325 72.8042 125.725 70.7042C124.225 68.6042 121.225 66.9042 118.025 67.0042C111.525 67.7042 108.425 71.5042 106.325 74.2042C105.325 75.7042 104.525 77.1042 103.725 78.6042C103.325 79.4042 103.125 80.0042 102.825 80.6042L102.625 81.1042C102.425 81.6042 102.525 81.5042 102.425 81.8042L102.125 82.9042C100.225 88.9042 100.225 94.6042 100.325 100.004C100.425 105.304 100.425 110.504 100.525 115.704C100.325 123.904 100.625 132.004 101.125 139.904C98.2254 143.104 95.2254 146.304 91.9254 149.204L86.0254 154.504C84.1254 156.204 82.0254 158.204 79.8254 160.404C71.6254 168.704 64.7254 178.404 60.4254 189.704C55.9254 200.804 55.6254 214.404 60.9254 225.404C66.0254 236.404 75.4254 244.204 85.2254 248.604C94.9254 252.804 105.025 254.704 114.925 254.504C115.625 259.704 116.325 264.704 116.825 269.404C119.325 282.004 114.425 292.904 106.525 296.404C100.625 298.704 95.3254 297.104 91.7254 294.604C92.1254 294.704 92.5254 294.804 92.9254 294.804C98.7254 295.204 103.725 290.904 104.125 285.104C104.525 279.304 100.225 274.304 94.4254 273.904C88.6254 273.504 83.6254 277.804 83.2254 283.604C83.2254 284.104 83.2254 284.504 83.2254 285.004C83.2254 285.004 83.2254 285.004 83.2254 285.104C83.3254 287.304 84.1254 289.304 85.5254 291.004C85.8254 291.504 86.2254 292.004 86.6254 292.604C88.2254 294.704 90.7254 297.004 94.3254 298.604C97.9254 300.104 102.525 300.904 107.525 299.504C112.525 298.204 117.525 294.004 119.925 288.304C121.225 285.504 122.125 282.304 122.125 279.004C122.225 275.404 121.825 272.404 121.525 269.004C121.025 264.304 120.325 259.404 119.625 254.304C128.425 253.504 136.825 251.004 144.425 247.004C152.925 242.104 159.725 234.304 162.525 225.204C165.625 216.204 165.025 206.304 161.725 197.804C158.625 189.504 152.325 182.204 144.425 178.104ZM110.425 93.7042C112.125 89.6042 115.625 78.3042 122.025 80.6042C126.025 82.1042 126.325 87.7042 126.125 91.2042C125.625 99.6042 123.125 107.904 118.725 115.104C114.525 122.104 110.125 128.604 105.325 134.904C105.225 128.604 105.225 122.404 105.525 116.004C105.825 108.404 107.525 100.804 110.425 93.7042ZM89.2254 241.204C81.2254 236.504 74.4254 229.604 71.4254 221.204C68.4254 212.904 69.6254 203.804 73.7254 195.604C77.9254 187.404 84.7254 180.204 92.1254 173.804C93.9254 172.304 95.7254 170.704 98.0254 169.004L101.025 166.704C101.725 166.104 102.525 165.604 103.225 165.004C103.525 168.104 103.825 171.204 104.125 174.204C104.425 176.904 104.725 179.504 105.025 182.204C98.6254 187.304 94.4254 194.004 92.6254 200.004C89.6254 210.204 91.5254 218.304 93.2254 223.204C94.1254 225.704 94.9254 227.504 95.6254 228.604C96.2254 229.804 96.6254 230.404 96.6254 230.404C96.6254 230.404 96.0254 227.704 95.7254 222.704C95.5254 217.804 95.7254 210.404 99.7254 202.904C101.225 199.804 103.525 196.804 106.525 194.104C107.925 205.204 109.325 215.904 110.725 226.004C111.725 233.804 112.925 241.404 113.925 248.504C105.325 248.004 96.6254 245.604 89.2254 241.204ZM156.925 223.904C155.425 231.704 149.925 239.004 142.125 243.004C135.225 246.604 127.125 248.504 118.925 248.704C117.825 241.304 116.625 233.504 115.325 225.404C113.625 214.604 111.825 203.204 110.225 191.304C113.725 188.904 117.925 187.104 122.625 186.304C133.325 184.704 145.925 189.604 153.025 202.104C156.425 208.204 158.325 216.104 156.925 223.904Z" fill="#1C2628" stroke="#1C2628" stroke-width="2.13" stroke-linecap="round" stroke-linejoin="round"/>
<path d="M241.025 193.404C234.225 195.304 229.925 200.804 231.525 205.604L223.725 265.504C223.625 266.104 224.125 266.604 224.725 266.704H224.825C225.425 266.704 225.925 266.304 226.025 265.804V265.604C226.925 263.404 228.325 261.504 235.725 258.204L237.025 257.604C242.825 255.104 253.525 250.504 251.025 241.004C250.825 240.404 250.225 240.104 249.625 240.204C249.025 240.304 248.625 240.904 248.825 241.504C250.825 249.304 241.625 253.304 236.025 255.704L234.625 256.304C230.525 258.104 228.125 259.604 226.525 261.104L233.325 208.704C236.125 211.404 241.325 212.504 246.525 211.004C253.325 209.104 257.625 203.604 256.025 198.804C254.625 193.804 247.825 191.504 241.025 193.404Z" fill="#1C2628" stroke="#1C2628" stroke-width="2.13" stroke-linecap="round" stroke-linejoin="round"/>
<path d="M154.425 287.304H155.225L145.825 329.104C143.525 327.104 139.725 326.104 135.825 326.904C129.925 328.104 125.825 332.604 126.725 337.004C127.625 341.404 133.125 344.104 139.025 342.904C144.925 341.704 149.025 337.204 148.125 332.804C148.125 332.604 148.025 332.504 147.925 332.304L156.725 293.304L200.325 293.004L192.225 328.904C189.925 326.804 186.125 325.804 182.125 326.604C176.225 327.804 172.125 332.304 173.025 336.704C173.925 341.104 179.425 343.804 185.325 342.604C191.225 341.404 195.325 336.904 194.425 332.504C194.425 332.404 194.325 332.304 194.325 332.204L204.625 286.804H205.425L208.125 274.704L157.425 274.804L154.425 287.304ZM200.925 290.204L157.325 290.504L158.025 287.204L201.725 286.704L200.925 290.204Z" fill="#1C2628" stroke="#1C2628" stroke-width="2.13" stroke-linecap="round" stroke-linejoin="round"/>
<path d="M461.025 475.904C460.825 487.304 460.925 498.704 461.425 510.104" stroke="#1C2628" stroke-width="2.13" stroke-linecap="round" stroke-linejoin="round"/>
<path d="M468.025 490.504C468.425 498.704 468.325 506.904 467.525 515.004C467.025 520.604 466.125 526.404 463.025 531.204C461.325 533.804 459.125 535.904 457.025 538.204C451.425 544.404 447.025 551.604 442.725 558.704" stroke="#1C2628" stroke-width="2.13" stroke-linecap="round" stroke-linejoin="round"/>
<path d="M448.325 535.604C440.025 549.904 430.325 563.304 419.425 575.704" stroke="#1C2628" stroke-width="2.13" stroke-linecap="round" stroke-linejoin="round"/>
<path d="M474.425 367.204C476.625 369.504 497.225 378.904 508.425 389.704" stroke="#1C2628" stroke-width="2.13" stroke-linecap="round" stroke-linejoin="round"/>
<path d="M483.025 381.904C485.525 383.504 487.925 385.104 490.425 386.704C495.525 390.004 500.625 393.404 504.325 398.204C509.825 405.404 511.425 414.804 511.425 423.904C511.425 429.004 511.325 434.904 515.325 437.904" stroke="#1C2628" stroke-width="2.13" stroke-linecap="round" stroke-linejoin="round"/>
<path d="M406.125 428.804C401.925 440.604 398.225 452.604 395.125 464.704" stroke="#1C2628" stroke-width="2.13" stroke-linecap="round" stroke-linejoin="round"/>
<path d="M328.825 383.904C329.525 390.004 329.925 396.204 330.025 402.404C330.025 405.304 329.925 408.304 328.825 411.004C326.725 415.604 321.725 418.504 320.025 423.304" stroke="#1C2628" stroke-width="2.13" stroke-linecap="round" stroke-linejoin="round"/>
<path d="M334.725 413.604C330.525 421.504 325.225 428.804 319.125 435.404" stroke="#1C2628" stroke-width="2.13" stroke-linecap="round" stroke-linejoin="round"/>
<path d="M477.625 614.404C479.625 619.704 481.725 625.004 483.725 630.304C485.125 633.904 486.725 637.804 490.025 639.904" stroke="#1C2628" stroke-width="2.13" stroke-linecap="round" stroke-linejoin="round"/>
<path d="M472.225 620.904L494.125 667.104" stroke="#1C2628" stroke-width="2.13" stroke-linecap="round" stroke-linejoin="round"/>
<path d="M276.125 660.004C272.025 667.104 268.825 674.604 266.625 682.504" stroke="#1C2628" stroke-width="2.13" stroke-linecap="round" stroke-linejoin="round"/>
<path d="M232.825 753.004L234.625 812.304C232.625 805.204 230.625 798.104 228.625 791.004" stroke="#1C2628" stroke-width="2.13" stroke-linecap="round" stroke-linejoin="round"/>
<path d="M436.725 302.904C439.211 302.904 441.225 300.889 441.225 298.404C441.225 295.919 439.211 293.904 436.725 293.904C434.24 293.904 432.225 295.919 432.225 298.404C432.225 300.889 434.24 302.904 436.725 302.904Z" fill="#F55C4A"/>
</svg>
